<svg xmlns="http://www.w3.org/2000/svg" width="55" height="55" viewBox="0 0 72 72" fill="none">
  <g id="profiles-core-small">
    <path id="Vector" d="M10.8 15.6008C10.8 12.9499 12.949 10.8008 15.5999 10.8008H40.8C43.4509 10.8008 45.6 12.9498 45.6 15.6008V40.8007C45.6 43.4516 43.4509 45.6007 40.8 45.6007H15.6C12.949 45.6007 10.8 43.4517 10.8 40.8007V15.6008Z" fill="url(#paint0_radial_5179_1308)"/>
    <path id="Vector_2" d="M9.59998 14.4016C9.59998 11.7506 11.749 9.60162 14.4 9.60156H39.6C42.251 9.60156 44.4 11.7506 44.4 14.4016V39.6015C44.4 42.2525 42.251 44.4015 39.6 44.4015H14.4C11.749 44.4016 9.59998 42.2525 9.59998 39.6015V14.4016Z" fill="url(#paint1_radial_5179_1308)"/>
    <path id="Vector_3" d="M18.6 21.9008C18.6 23.0606 17.6598 24.0008 16.5 24.0008C15.3402 24.0008 14.4 23.0606 14.4 21.9008C14.4 20.741 15.3402 19.8008 16.5 19.8008C17.6598 19.8008 18.6 20.741 18.6 21.9008Z" fill="url(#paint2_radial_5179_1308)"/>
    <path id="Vector_4" d="M39.6 21.9008C39.6 23.0606 38.6598 24.0008 37.5 24.0008C36.3402 24.0008 35.4 23.0606 35.4 21.9008C35.4 20.741 36.3402 19.8008 37.5 19.8008C38.6598 19.8008 39.6 20.741 39.6 21.9008Z" fill="url(#paint3_radial_5179_1308)"/>
    <path id="Vector_5" d="M23.6713 29.4501C23.2437 29.1967 22.6917 29.3379 22.4383 29.7655C22.1848 30.1932 22.3261 30.7452 22.7537 30.9986C23.8254 31.6337 26.769 32.7744 30.6375 32.7744C34.506 32.7744 37.4497 31.6337 38.5213 30.9986C38.949 30.7452 39.0902 30.1932 38.8368 29.7655C38.5834 29.3379 38.0313 29.1967 37.6037 29.4501C36.8191 29.9151 34.194 30.9744 30.6375 30.9744C27.081 30.9744 24.456 29.9151 23.6713 29.4501Z" fill="url(#paint4_radial_5179_1308)"/>
    <path id="Vector_6" opacity="0.35" d="M19.2 44.4016H28.2L32.4 27.6016C30.2787 28.1801 28.4542 29.5387 27.2921 31.4053L19.2 44.4016Z" fill="url(#paint5_radial_5179_1308)"/>
    <path id="Vector_7" d="M27.6 32.4016C27.6 29.7506 29.749 27.6016 32.4 27.6016L57.6 27.6016C60.2508 27.6016 62.4 29.7506 62.4 32.4016V57.6015C62.4 60.2524 60.2508 62.4016 57.6 62.4016H32.4C29.749 62.4016 27.6 60.2524 27.6 57.6016V32.4016Z" fill="url(#paint6_linear_5179_1308)"/>
    <path id="Vector_8" d="M36.6 39.9008C36.6 41.0606 35.6598 42.0008 34.5 42.0008C33.3402 42.0008 32.4 41.0606 32.4 39.9008C32.4 38.741 33.3402 37.8008 34.5 37.8008C35.6598 37.8008 36.6 38.741 36.6 39.9008Z" fill="url(#paint7_radial_5179_1308)"/>
    <path id="Vector_9" d="M57.6 39.9008C57.6 41.0606 56.6598 42.0008 55.5 42.0008C54.3402 42.0008 53.4 41.0606 53.4 39.9008C53.4 38.741 54.3402 37.8008 55.5 37.8008C56.6598 37.8008 57.6 38.741 57.6 39.9008Z" fill="url(#paint8_radial_5179_1308)"/>
    <path id="Vector_10" d="M41.8213 47.6025C41.3937 47.349 40.8416 47.4903 40.5882 47.9179C40.3348 48.3455 40.476 48.8976 40.9037 49.1509C41.9753 49.786 44.919 50.9267 48.7875 50.9267C52.656 50.9267 55.5996 49.786 56.6713 49.1509C57.0989 48.8976 57.2402 48.3455 56.9867 47.9179C56.7333 47.4903 56.1813 47.349 55.7537 47.6025C54.969 48.0674 52.344 49.1267 48.7875 49.1267C45.231 49.1267 42.6059 48.0674 41.8213 47.6025Z" fill="url(#paint9_radial_5179_1308)"/>
  </g>
  <defs>
    <radialGradient id="paint0_radial_5179_1308" cx="0" cy="0" r="1" gradientUnits="userSpaceOnUse" gradientTransform="translate(50.3269 49.3723) rotate(118.526) scale(55.1579 46.2871)">
      <stop stop-color="#802600"></stop>
      <stop offset="0.333333" stop-color="#6F181D"></stop>
      <stop offset="0.666667" stop-color="#5B1333"></stop>
      <stop offset="1" stop-color="#391945"></stop>
    </radialGradient>
    <radialGradient id="paint1_radial_5179_1308" cx="0" cy="0" r="1" gradientUnits="userSpaceOnUse" gradientTransform="translate(48.1077 53.6128) rotate(158.116) scale(32.7275 42.219)">
      <stop stop-color="#99421D"></stop>
      <stop offset="0.333333" stop-color="#99161D"></stop>
      <stop offset="0.666667" stop-color="#7D1845"></stop>
      <stop offset="1" stop-color="#59216E"></stop>
    </radialGradient>
    <radialGradient id="paint2_radial_5179_1308" cx="0" cy="0" r="1" gradientUnits="userSpaceOnUse" gradientTransform="translate(38.6181 23.8286) rotate(90) scale(25.2753 20.7089)">
      <stop stop-color="#FF481C"></stop>
      <stop offset="1" stop-color="#B04F6D"></stop>
    </radialGradient>
    <radialGradient id="paint3_radial_5179_1308" cx="0" cy="0" r="1" gradientUnits="userSpaceOnUse" gradientTransform="translate(50.3271 23.8286) rotate(90) scale(25.2753 20.7089)">
      <stop stop-color="#FF481C"></stop>
      <stop offset="1" stop-color="#B04F6D"></stop>
    </radialGradient>
    <radialGradient id="paint4_radial_5179_1308" cx="0" cy="0" r="1" gradientUnits="userSpaceOnUse" gradientTransform="translate(31.4015 29.4602) rotate(90) scale(14.3584 8.44362)">
      <stop stop-color="#FF813F"></stop>
      <stop offset="1" stop-color="#D95E6A"></stop>
    </radialGradient>
    <linearGradient id="paint5_radial_5179_1308" x1="21.6" y1="44.8016" x2="35.1" y2="44.8016" gradientUnits="userSpaceOnUse">
      <stop stop-color="#8F3D00"></stop>
      <stop offset="1" stop-color="#742A26"></stop>
    </linearGradient>
    <linearGradient id="paint6_linear_5179_1308" x1="50.4016" y1="41.8016" x2="50.4016" y2="34.8008" gradientUnits="userSpaceOnUse">
      <stop stop-color="#F4E2C7"></stop>
      <stop offset="1" stop-color="#C8C8C8"></stop>
    </linearGradient>
    <radialGradient id="paint7_radial_5179_1308" cx="0" cy="0" r="1" gradientUnits="userSpaceOnUse" gradientTransform="translate(42.6025 41.9008) rotate(90) scale(11.5224 7.52828)">
      <stop stop-color="#D6B9B9"></stop>
      <stop offset="1" stop-color="#A54D5B"></stop>
    </radialGradient>
    <radialGradient id="paint8_radial_5179_1308" cx="0" cy="0" r="1" gradientUnits="userSpaceOnUse" gradientTransform="translate(55.5033 41.9008) rotate(90) scale(11.5224 7.52828)">
      <stop stop-color="#D6B9B9"></stop>
      <stop offset="1" stop-color="#A54D5B"></stop>
    </radialGradient>
    <radialGradient id="paint9_radial_5179_1308" cx="0" cy="0" r="1" gradientUnits="userSpaceOnUse" gradientTransform="translate(49.2279 49.7631) rotate(90) scale(8.80087 10.6701)">
      <stop stop-color="#F9C1A6"></stop>
      <stop offset="1" stop-color="#E94C5F"></stop>
    </radialGradient>
  </defs>
</svg>
